<svg width="190" height="62" viewBox="0 0 190 62" fill="none" xmlns="http://www.w3.org/2000/svg">
<rect width="190" height="62" rx="5" fill="url(#paint0_linear_78_1068)"/>
<path d="M62.3812 33.3223H65.0668C64.9952 34.2728 64.7315 35.1159 64.2758 35.8516C63.8201 36.5807 63.1853 37.1536 62.3715 37.5703C61.5577 37.987 60.5714 38.1953 59.4125 38.1953C58.5206 38.1953 57.7165 38.0391 57.0004 37.7266C56.2908 37.4076 55.682 36.9551 55.1742 36.3691C54.6729 35.7767 54.2888 35.0671 54.0219 34.2402C53.7549 33.4069 53.6215 32.4727 53.6215 31.4375V30.3535C53.6215 29.3184 53.7582 28.3841 54.0316 27.5508C54.3051 26.7174 54.6957 26.0078 55.2035 25.4219C55.7178 24.8294 56.3331 24.3737 57.0492 24.0547C57.7719 23.7357 58.5792 23.5762 59.4711 23.5762C60.6299 23.5762 61.6098 23.791 62.4105 24.2207C63.2113 24.6439 63.8331 25.2266 64.2758 25.9688C64.7185 26.7109 64.9854 27.5638 65.0766 28.5273H62.391C62.3389 27.9284 62.2087 27.4206 62.0004 27.0039C61.7986 26.5872 61.4926 26.2715 61.0824 26.0566C60.6788 25.8353 60.1417 25.7246 59.4711 25.7246C58.9503 25.7246 58.4913 25.8223 58.0941 26.0176C57.7035 26.2129 57.378 26.5059 57.1176 26.8965C56.8572 27.2806 56.6618 27.7624 56.5316 28.3418C56.4014 28.9147 56.3363 29.5788 56.3363 30.334V31.4375C56.3363 32.1602 56.3949 32.8079 56.5121 33.3809C56.6293 33.9538 56.8116 34.4388 57.059 34.8359C57.3064 35.2331 57.6254 35.5358 58.016 35.7441C58.4066 35.9525 58.8721 36.0566 59.4125 36.0566C60.0701 36.0566 60.6039 35.9525 61.0141 35.7441C61.4307 35.5358 61.7465 35.2298 61.9613 34.8262C62.1827 34.4225 62.3227 33.9212 62.3812 33.3223ZM66.0926 32.8242V32.6191C66.0926 31.8444 66.2033 31.1315 66.4246 30.4805C66.646 29.8229 66.9682 29.2533 67.3914 28.7715C67.8146 28.2897 68.3322 27.9154 68.9441 27.6484C69.5561 27.375 70.2527 27.2383 71.034 27.2383C71.8283 27.2383 72.5314 27.375 73.1434 27.6484C73.7618 27.9154 74.2827 28.2897 74.7059 28.7715C75.129 29.2533 75.4513 29.8229 75.6727 30.4805C75.894 31.1315 76.0047 31.8444 76.0047 32.6191V32.8242C76.0047 33.5924 75.894 34.3053 75.6727 34.9629C75.4513 35.6139 75.129 36.1836 74.7059 36.6719C74.2827 37.1536 73.7651 37.528 73.1531 37.7949C72.5411 38.0618 71.8413 38.1953 71.0535 38.1953C70.2723 38.1953 69.5724 38.0618 68.9539 37.7949C68.3354 37.528 67.8146 37.1536 67.3914 36.6719C66.9682 36.1836 66.646 35.6139 66.4246 34.9629C66.2033 34.3053 66.0926 33.5924 66.0926 32.8242ZM68.6707 32.6191V32.8242C68.6707 33.2865 68.7163 33.7194 68.8074 34.123C68.8986 34.5267 69.0385 34.8815 69.2273 35.1875C69.4161 35.4935 69.6603 35.7344 69.9598 35.9102C70.2658 36.0794 70.6303 36.1641 71.0535 36.1641C71.4702 36.1641 71.8283 36.0794 72.1277 35.9102C72.4272 35.7344 72.6714 35.4935 72.8602 35.1875C73.0555 34.8815 73.1987 34.5267 73.2898 34.123C73.381 33.7194 73.4266 33.2865 73.4266 32.8242V32.6191C73.4266 32.1634 73.381 31.737 73.2898 31.3398C73.1987 30.9362 73.0555 30.5814 72.8602 30.2754C72.6714 29.9629 72.424 29.7188 72.118 29.543C71.8185 29.3607 71.4572 29.2695 71.034 29.2695C70.6173 29.2695 70.2592 29.3607 69.9598 29.543C69.6603 29.7188 69.4161 29.9629 69.2273 30.2754C69.0385 30.5814 68.8986 30.9362 68.8074 31.3398C68.7163 31.737 68.6707 32.1634 68.6707 32.6191ZM80.009 29.6895V38H77.4309V27.4336H79.8527L80.009 29.6895ZM79.5988 32.3359H78.8371C78.8436 31.5677 78.9478 30.8711 79.1496 30.2461C79.3514 29.6211 79.6346 29.084 79.9992 28.6348C80.3703 28.1855 80.8098 27.8405 81.3176 27.5996C81.8254 27.3587 82.3918 27.2383 83.0168 27.2383C83.5246 27.2383 83.9836 27.3099 84.3937 27.4531C84.8039 27.5964 85.1555 27.8242 85.4484 28.1367C85.7479 28.4492 85.9758 28.8594 86.132 29.3672C86.2948 29.8685 86.3762 30.487 86.3762 31.2227V38H83.7785V31.2031C83.7785 30.7214 83.7069 30.3405 83.5637 30.0605C83.427 29.7806 83.2251 29.582 82.9582 29.4648C82.6978 29.3477 82.3755 29.2891 81.9914 29.2891C81.5943 29.2891 81.246 29.3704 80.9465 29.5332C80.6535 29.6895 80.4061 29.9076 80.2043 30.1875C80.009 30.4674 79.8592 30.7897 79.7551 31.1543C79.6509 31.5189 79.5988 31.9128 79.5988 32.3359ZM93.2516 27.4336V29.2891H87.1969V27.4336H93.2516ZM88.818 24.8359H91.4059V34.9531C91.4059 35.2656 91.4482 35.5065 91.5328 35.6758C91.6174 35.8451 91.7444 35.959 91.9137 36.0176C92.0829 36.0762 92.2848 36.1055 92.5191 36.1055C92.6884 36.1055 92.8447 36.0957 92.9879 36.0762C93.1311 36.0566 93.2516 36.0371 93.3492 36.0176L93.359 37.9512C93.1441 38.0228 92.9 38.0814 92.6266 38.127C92.3596 38.1725 92.0569 38.1953 91.7184 38.1953C91.1389 38.1953 90.6311 38.0977 90.1949 37.9023C89.7587 37.7005 89.4202 37.3783 89.1793 36.9355C88.9384 36.4863 88.818 35.8939 88.818 35.1582V24.8359ZM97.3047 27.4336V38H94.7168V27.4336H97.3047ZM94.541 24.6699C94.541 24.2858 94.6712 23.9668 94.9316 23.7129C95.1986 23.459 95.5566 23.332 96.0059 23.332C96.4551 23.332 96.8099 23.459 97.0703 23.7129C97.3372 23.9668 97.4707 24.2858 97.4707 24.6699C97.4707 25.0475 97.3372 25.3633 97.0703 25.6172C96.8099 25.8711 96.4551 25.998 96.0059 25.998C95.5566 25.998 95.1986 25.8711 94.9316 25.6172C94.6712 25.3633 94.541 25.0475 94.541 24.6699ZM101.895 29.6895V38H99.3168V27.4336H101.739L101.895 29.6895ZM101.485 32.3359H100.723C100.73 31.5677 100.834 30.8711 101.036 30.2461C101.237 29.6211 101.521 29.084 101.885 28.6348C102.256 28.1855 102.696 27.8405 103.204 27.5996C103.711 27.3587 104.278 27.2383 104.903 27.2383C105.411 27.2383 105.87 27.3099 106.28 27.4531C106.69 27.5964 107.041 27.8242 107.334 28.1367C107.634 28.4492 107.862 28.8594 108.018 29.3672C108.181 29.8685 108.262 30.487 108.262 31.2227V38H105.664V31.2031C105.664 30.7214 105.593 30.3405 105.45 30.0605C105.313 29.7806 105.111 29.582 104.844 29.4648C104.584 29.3477 104.261 29.2891 103.877 29.2891C103.48 29.2891 103.132 29.3704 102.832 29.5332C102.539 29.6895 102.292 29.9076 102.09 30.1875C101.895 30.4674 101.745 30.7897 101.641 31.1543C101.537 31.5189 101.485 31.9128 101.485 32.3359ZM116.427 35.4902V27.4336H119.024V38H116.583L116.427 35.4902ZM116.759 33.3027L117.559 33.2832C117.559 33.9928 117.481 34.6471 117.325 35.2461C117.169 35.8451 116.925 36.3659 116.593 36.8086C116.267 37.2448 115.854 37.5866 115.352 37.834C114.851 38.0749 114.259 38.1953 113.575 38.1953C113.054 38.1953 112.579 38.1237 112.149 37.9805C111.72 37.8307 111.348 37.5996 111.036 37.2871C110.73 36.9681 110.492 36.5612 110.323 36.0664C110.154 35.5651 110.069 34.9629 110.069 34.2598V27.4336H112.647V34.2793C112.647 34.6309 112.686 34.9238 112.764 35.1582C112.849 35.3926 112.963 35.5846 113.106 35.7344C113.256 35.8776 113.429 35.9818 113.624 36.0469C113.826 36.1055 114.04 36.1348 114.268 36.1348C114.893 36.1348 115.385 36.0111 115.743 35.7637C116.108 35.5098 116.368 35.1712 116.524 34.748C116.68 34.3184 116.759 33.8366 116.759 33.3027ZM126.73 35.7539V30.8809C126.73 30.5228 126.668 30.2135 126.544 29.9531C126.42 29.6927 126.232 29.4909 125.978 29.3477C125.724 29.2044 125.402 29.1328 125.011 29.1328C124.666 29.1328 124.363 29.1914 124.103 29.3086C123.849 29.4258 123.654 29.5918 123.517 29.8066C123.38 30.015 123.312 30.2559 123.312 30.5293H120.724C120.724 30.0931 120.828 29.6797 121.036 29.2891C121.245 28.8919 121.541 28.5404 121.925 28.2344C122.316 27.9219 122.781 27.6777 123.321 27.502C123.868 27.3262 124.48 27.2383 125.157 27.2383C125.958 27.2383 126.671 27.375 127.296 27.6484C127.928 27.9154 128.422 28.319 128.78 28.8594C129.145 29.3997 129.327 30.0801 129.327 30.9004V35.5098C129.327 36.0371 129.36 36.4896 129.425 36.8672C129.497 37.2383 129.601 37.5605 129.737 37.834V38H127.111C126.987 37.7331 126.892 37.3945 126.827 36.9844C126.762 36.5677 126.73 36.1576 126.73 35.7539ZM127.091 31.5645L127.111 33.0977H125.48C125.076 33.0977 124.721 33.14 124.415 33.2246C124.109 33.3027 123.859 33.4199 123.663 33.5762C123.468 33.7259 123.321 33.9082 123.224 34.123C123.126 34.3314 123.077 34.569 123.077 34.8359C123.077 35.0964 123.136 35.3307 123.253 35.5391C123.377 35.7474 123.553 35.9134 123.78 36.0371C124.015 36.1543 124.288 36.2129 124.601 36.2129C125.057 36.2129 125.454 36.1217 125.792 35.9395C126.131 35.7507 126.394 35.5228 126.583 35.2559C126.772 34.9889 126.873 34.735 126.886 34.4941L127.628 35.6074C127.537 35.8743 127.4 36.1576 127.218 36.457C127.036 36.7565 126.801 37.0365 126.515 37.2969C126.228 37.5573 125.883 37.7721 125.48 37.9414C125.076 38.1107 124.607 38.1953 124.073 38.1953C123.39 38.1953 122.778 38.0586 122.237 37.7852C121.697 37.5117 121.271 37.1374 120.958 36.6621C120.646 36.1868 120.489 35.6465 120.489 35.041C120.489 34.4811 120.594 33.9863 120.802 33.5566C121.01 33.127 121.32 32.7656 121.73 32.4727C122.14 32.1732 122.648 31.9486 123.253 31.7988C123.865 31.6426 124.565 31.5645 125.353 31.5645H127.091ZM133.83 29.5918V38H131.252V27.4336H133.693L133.83 29.5918ZM137.043 27.3652L137.004 29.7676C136.86 29.7415 136.698 29.722 136.515 29.709C136.339 29.696 136.173 29.6895 136.017 29.6895C135.62 29.6895 135.272 29.7448 134.972 29.8555C134.673 29.9596 134.422 30.1126 134.22 30.3145C134.025 30.5163 133.875 30.7637 133.771 31.0566C133.667 31.3431 133.608 31.6686 133.595 32.0332L133.039 31.9648C133.039 31.2943 133.107 30.6725 133.244 30.0996C133.38 29.5267 133.579 29.0254 133.839 28.5957C134.1 28.166 134.425 27.834 134.816 27.5996C135.213 27.3587 135.669 27.2383 136.183 27.2383C136.326 27.2383 136.479 27.2513 136.642 27.2773C136.811 27.2969 136.945 27.3262 137.043 27.3652Z" fill="white"/>
<defs>
<linearGradient id="paint0_linear_78_1068" x1="-12.825" y1="-17.9014" x2="223.175" y2="59.8229" gradientUnits="userSpaceOnUse">
<stop stop-color="#003B6D"/>
<stop offset="1" stop-color="#005297"/>
</linearGradient>
</defs>
</svg>
