<svg width="22" height="22" viewBox="0 0 22 22" fill="none" xmlns="http://www.w3.org/2000/svg">
<path d="M8.077 10.923C7.75833 10.6043 7.24167 10.6043 6.923 10.923C6.60433 11.2417 6.60433 11.7583 6.923 12.077L8.077 10.923ZM9.5 13.5L8.923 14.077C9.24167 14.3957 9.75833 14.3957 10.077 14.077L9.5 13.5ZM15.077 9.077C15.3957 8.75833 15.3957 8.24167 15.077 7.923C14.7583 7.60433 14.2417 7.60433 13.923 7.923L15.077 9.077ZM20.184 11C20.184 16.0722 16.0722 20.184 11 20.184V21.816C16.9735 21.816 21.816 16.9735 21.816 11H20.184ZM11 20.184C5.92782 20.184 1.816 16.0722 1.816 11H0.184C0.184 16.9735 5.02649 21.816 11 21.816V20.184ZM1.816 11C1.816 5.92782 5.92782 1.816 11 1.816V0.184C5.02649 0.184 0.184 5.02649 0.184 11H1.816ZM11 1.816C16.0722 1.816 20.184 5.92782 20.184 11H21.816C21.816 5.02649 16.9735 0.184 11 0.184V1.816ZM6.923 12.077L8.923 14.077L10.077 12.923L8.077 10.923L6.923 12.077ZM10.077 14.077L15.077 9.077L13.923 7.923L8.923 12.923L10.077 14.077Z" fill="#1E1E1E"/>
</svg>
